<svg width="8" height="9" viewBox="0 0 8 9" fill="none" xmlns="http://www.w3.org/2000/svg">
<path d="M3.05742 2.66986L1.33493 4.39234C1.17703 4.55024 0.994019 4.62919 0.785885 4.62919C0.577751 4.62919 0.394737 4.55024 0.236842 4.39234C0.0789474 4.23445 0 4.05144 0 3.8433C0 3.63517 0.0789474 3.45215 0.236842 3.29426L3.29426 0.236842C3.45215 0.0789474 3.63158 0 3.83254 0C4.03349 0 4.21292 0.0789474 4.37081 0.236842L7.42823 3.29426C7.58612 3.45215 7.66507 3.63158 7.66507 3.83254C7.66507 4.03349 7.58612 4.21292 7.42823 4.37081C7.27033 4.52871 7.08732 4.60766 6.87919 4.60766C6.67105 4.60766 6.48804 4.52871 6.33014 4.37081L4.60766 2.66986V8.22488C4.60766 8.44019 4.5323 8.62321 4.38158 8.77392C4.23086 8.92464 4.04785 9 3.83254 9C3.61722 9 3.43421 8.92464 3.28349 8.77392C3.13278 8.62321 3.05742 8.44019 3.05742 8.22488V2.66986Z" fill="#3BA752"/>
</svg>
