<svg width="83" height="67" viewBox="0 0 83 67" fill="none" xmlns="http://www.w3.org/2000/svg">
<path d="M43.7052 43.1286C43.7234 43.2493 43.7981 43.354 43.9062 43.4106C44.0143 43.4672 44.1429 43.4688 44.2525 43.4151L60.2137 35.5797C60.315 35.53 60.3892 35.4381 60.4165 35.3287C60.618 34.5205 60.6832 33.7191 60.6832 32.8547C60.6832 31.8991 60.5508 31.0276 60.4227 30.2569C60.4023 30.1346 60.3239 30.0296 60.2124 29.9754L44.2511 22.2169C44.1425 22.1641 44.0153 22.1656 43.908 22.221C43.8007 22.2765 43.7259 22.3793 43.7061 22.4984L43.7037 22.5125C43.643 22.8777 43.5766 23.2769 43.5733 23.682C43.5093 24.0905 43.5093 24.5644 43.5093 24.9995V25.0193C43.5093 25.1819 43.525 25.3601 43.5396 25.5262L43.5427 25.5616C43.5588 25.745 43.5732 25.9216 43.5732 26.0948C43.5732 26.1158 43.5749 26.1368 43.5784 26.1576C43.6062 26.3249 43.6209 26.4938 43.6365 26.6716L43.6385 26.6947C43.6541 26.8732 43.6716 27.0687 43.7089 27.2481C43.7339 27.3686 43.8154 27.4698 43.9278 27.5199L55.7368 32.7849L43.9226 38.2687C43.8128 38.3197 43.7335 38.4196 43.7089 38.5381C43.6447 38.8471 43.5767 39.2482 43.5733 39.6598C43.5093 40.0647 43.5093 40.4666 43.5093 40.9029V40.9205C43.5093 41.5609 43.5759 42.2728 43.7052 43.1286Z" fill="#FD5B4F"/>
<path fill-rule="evenodd" clip-rule="evenodd" d="M38.4086 14.0179C38.5167 14.0745 38.5913 14.1793 38.6096 14.2999C38.7389 15.1557 38.8054 15.8676 38.8054 16.508V16.5258C38.8054 16.962 38.8054 17.3639 38.7414 17.7687C38.7381 18.1804 38.6701 18.5815 38.6059 18.8904C38.5812 19.0089 38.502 19.1088 38.3922 19.1598L26.578 24.6436L38.3869 29.9086C38.4993 29.9587 38.5808 30.0599 38.6059 30.1804C38.6431 30.3598 38.6606 30.5553 38.6763 30.7338L38.6783 30.7568C38.6938 30.9347 38.7086 31.1036 38.7364 31.2709C38.7398 31.2917 38.7416 31.3127 38.7416 31.3337C38.7416 31.5069 38.756 31.6835 38.772 31.8669L38.7751 31.9022C38.7897 32.0683 38.8054 32.2466 38.8054 32.4092V32.4292C38.8054 32.8642 38.8054 33.3381 38.7414 33.7465C38.7381 34.1515 38.6718 34.5506 38.6111 34.9158L38.6087 34.9301C38.5889 35.0492 38.514 35.152 38.4067 35.2075C38.2994 35.2629 38.1723 35.2645 38.0636 35.2117L22.1024 27.4531C21.9908 27.3989 21.9124 27.2939 21.8921 27.1716C21.764 26.4009 21.6315 25.5294 21.6315 24.5738C21.6315 23.7094 21.6968 22.908 21.8983 22.0999C21.9256 21.9904 21.9998 21.8985 22.101 21.8488L38.0623 14.0134C38.1718 13.9597 38.3005 13.9613 38.4086 14.0179Z" fill="#FD5B4F"/>
<path fill-rule="evenodd" clip-rule="evenodd" d="M73.7 0H8.61429C3.85675 0 0 3.85674 0 8.61429V48.8143C0 53.5718 3.85674 57.4286 8.61429 57.4286H73.7C78.4575 57.4286 82.3143 53.5718 82.3143 48.8143V8.61429C82.3143 3.85675 78.4576 0 73.7 0ZM4.78571 8.61429C4.78571 6.49982 6.49983 4.78571 8.61429 4.78571H73.7C75.8145 4.78571 77.5286 6.49982 77.5286 8.61429V48.8143C77.5286 50.9287 75.8145 52.6429 73.7 52.6429H8.61429C6.49982 52.6429 4.78571 50.9287 4.78571 48.8143V8.61429Z" fill="#FD5B4F"/>
<path d="M9.09286 62.2143C7.77132 62.2143 6.7 63.2856 6.7 64.6071C6.7 65.9287 7.77132 67 9.09286 67H73.2214C74.543 67 75.6143 65.9287 75.6143 64.6071C75.6143 63.2856 74.543 62.2143 73.2214 62.2143H9.09286Z" fill="#FD5B4F"/>
</svg>
