<svg width="20" height="14" viewBox="0 0 20 14" fill="none" xmlns="http://www.w3.org/2000/svg">
<path d="M2.16024 8.76061C2.16024 9.52427 2.32786 10.1106 2.54695 10.4653C2.83419 10.9299 3.26262 11.1267 3.6994 11.1267C4.26276 11.1267 4.77813 10.9869 5.77132 9.6133C6.56698 8.51231 7.50452 6.96689 8.13535 5.99805L9.20364 4.35666C9.94575 3.21672 10.8047 1.94951 11.7895 1.09056C12.5935 0.389484 13.4608 0 14.3337 0C15.7991 0 17.195 0.849214 18.2633 2.44193C19.4325 4.18626 20 6.38336 20 8.65072C20 9.99861 19.7343 10.989 19.2822 11.7715C18.8455 12.5282 17.9942 13.2842 16.5621 13.2842V11.1267C17.7883 11.1267 18.0943 10 18.0943 8.71053C18.0943 6.873 17.6659 4.83377 16.7221 3.37669C16.0523 2.34316 15.1843 1.71164 14.2294 1.71164C13.1965 1.71164 12.3654 2.49061 11.4314 3.87954C10.9348 4.61747 10.425 5.51676 9.85255 6.53151L9.22242 7.6478C7.9566 9.8922 7.63597 10.4034 7.00306 11.247C5.89373 12.7243 4.94645 13.2842 3.6994 13.2842C2.22006 13.2842 1.2846 12.6436 0.705244 11.6783C0.232299 10.8916 0 9.85951 0 8.68341L2.16024 8.76061Z" fill="#0081FB"/>
</svg>
