<svg width="19" height="14" viewBox="0 0 19 14" fill="none" xmlns="http://www.w3.org/2000/svg">
<path d="M0 2.69396C1.02847 1.10864 2.51268 0 4.215 0C5.20086 0 6.18094 0.291785 7.20436 1.12742C8.32383 2.04105 9.51697 3.54548 11.0055 6.02494L11.5392 6.91474C12.8277 9.06124 13.5608 10.1655 13.9898 10.6863C14.5416 11.3551 14.928 11.5544 15.43 11.5544C16.7033 11.5544 17.0211 10.3844 17.0211 9.04535L19 8.98324C19 10.3829 18.7241 11.4114 18.2546 12.2239C17.8011 13.0097 16.9171 13.7948 15.43 13.7948C14.5055 13.7948 13.6865 13.594 12.7808 12.7396C12.0845 12.0838 11.2706 10.9188 10.6444 9.87159L8.78173 6.76018C7.84715 5.19869 6.98985 4.03444 6.49367 3.5072C5.95993 2.94024 5.27381 2.25556 4.17889 2.25556C3.2927 2.25556 2.54012 2.87741 1.91033 3.8286L0 2.69396Z" fill="url(#paint0_linear_11_80)"/>
<defs>
<linearGradient id="paint0_linear_11_80" x1="2.73368" y1="6.5399" x2="17.0341" y2="7.26214" gradientUnits="userSpaceOnUse">
<stop stop-color="#0064E1"/>
<stop offset="0.4" stop-color="#0064E1"/>
<stop offset="0.83" stop-color="#0073EE"/>
<stop offset="1" stop-color="#0082FB"/>
</linearGradient>
</defs>
</svg>
