<svg width="20" height="14" viewBox="0 0 20 14" fill="none" xmlns="http://www.w3.org/2000/svg">
<path d="M2.04339 5.69707C2.04339 5.69707 3.85135 3.02933 7.46244 2.75291V1.78465C3.46324 2.10687 0 5.49377 0 5.49377C0 5.49377 1.96143 11.1643 7.46244 11.6834V10.6549C3.42547 10.147 2.04339 5.69787 2.04339 5.69787V5.69707ZM7.46244 8.60747V9.55002C4.41141 9.00603 3.56448 5.83447 3.56448 5.83447C3.56448 5.83447 5.02933 4.21213 7.46244 3.94857V4.98272C7.46244 4.98272 7.45922 4.98272 7.45761 4.98272C6.1808 4.82925 5.1828 6.0225 5.1828 6.0225C5.1828 6.0225 5.74207 8.03053 7.46163 8.60828M7.46244 0V1.78546C7.57975 1.77662 7.69707 1.76858 7.81519 1.76456C12.3616 1.61109 15.3242 5.49377 15.3242 5.49377C15.3242 5.49377 11.9221 9.63118 8.37686 9.63118C8.05223 9.63118 7.74769 9.60064 7.46244 9.55002V10.6541C7.70671 10.6854 7.95982 10.7031 8.22419 10.7031C11.5227 10.7031 13.9084 9.01888 16.2178 7.02451C16.601 7.33146 18.1687 8.07714 18.491 8.40418C16.2949 10.2427 11.1764 11.7252 8.27481 11.7252C7.99518 11.7252 7.7268 11.7083 7.46244 11.6826V13.2342H20V0H7.46244ZM7.46244 3.94857V2.75291C7.57895 2.74488 7.69546 2.73845 7.81519 2.73443C11.0848 2.63158 13.2294 5.5444 13.2294 5.5444C13.2294 5.5444 10.9128 8.76175 8.42828 8.76175C8.07071 8.76175 7.7501 8.7047 7.46163 8.60747V4.98272C8.73443 5.1362 8.99076 5.69867 9.75573 6.97469L11.4576 5.53957C11.4576 5.53957 10.2153 3.91 8.12133 3.91C7.89393 3.91 7.67618 3.92607 7.46163 3.94857" fill="#77B900"/>
</svg>
