<svg width="12" height="12" viewBox="0 0 12 12" fill="none" xmlns="http://www.w3.org/2000/svg">
<path d="M2.49583 5C1.80417 5 1.21528 4.75556 0.729167 4.26667C0.243056 3.77778 0 3.1875 0 2.49583C0 1.80417 0.244444 1.21528 0.733333 0.729167C1.22222 0.243056 1.8125 0 2.50417 0C3.19583 0 3.78472 0.244445 4.27083 0.733334C4.75694 1.22222 5 1.8125 5 2.50417C5 3.19583 4.75556 3.78472 4.26667 4.27083C3.77778 4.75694 3.1875 5 2.49583 5ZM2.5 3.5C2.77778 3.5 3.01389 3.40278 3.20833 3.20833C3.40278 3.01389 3.5 2.77778 3.5 2.5C3.5 2.22222 3.40278 1.98611 3.20833 1.79167C3.01389 1.59722 2.77778 1.5 2.5 1.5C2.22222 1.5 1.98611 1.59722 1.79167 1.79167C1.59722 1.98611 1.5 2.22222 1.5 2.5C1.5 2.77778 1.59722 3.01389 1.79167 3.20833C1.98611 3.40278 2.22222 3.5 2.5 3.5ZM9.49583 12C8.80417 12 8.21528 11.7556 7.72917 11.2667C7.24306 10.7778 7 10.1875 7 9.49583C7 8.80417 7.24444 8.21528 7.73333 7.72917C8.22222 7.24306 8.8125 7 9.50417 7C10.1958 7 10.7847 7.24444 11.2708 7.73333C11.7569 8.22222 12 8.8125 12 9.50417C12 10.1958 11.7556 10.7847 11.2667 11.2708C10.7778 11.7569 10.1875 12 9.49583 12ZM9.5 10.5C9.77778 10.5 10.0139 10.4028 10.2083 10.2083C10.4028 10.0139 10.5 9.77778 10.5 9.5C10.5 9.22222 10.4028 8.98611 10.2083 8.79167C10.0139 8.59722 9.77778 8.5 9.5 8.5C9.22222 8.5 8.98611 8.59722 8.79167 8.79167C8.59722 8.98611 8.5 9.22222 8.5 9.5C8.5 9.77778 8.59722 10.0139 8.79167 10.2083C8.98611 10.4028 9.22222 10.5 9.5 10.5ZM0.541667 11.4583C0.388889 11.3056 0.3125 11.1285 0.3125 10.9271C0.3125 10.7257 0.388889 10.5486 0.541667 10.3958L10.4167 0.520833C10.5694 0.368056 10.7431 0.295139 10.9375 0.302083C11.1319 0.309028 11.3056 0.388889 11.4583 0.541667C11.6111 0.694444 11.6875 0.871528 11.6875 1.07292C11.6875 1.27431 11.6111 1.45139 11.4583 1.60417L1.58333 11.4792C1.43056 11.6319 1.25694 11.7049 1.0625 11.6979C0.868056 11.691 0.694444 11.6111 0.541667 11.4583Z" fill="#3BA752"/>
</svg>
